<?xml version="1.0" encoding="UTF-8"?>
<svg class="css-1j8o68f" width="479.7" height="116.41" viewBox="0 0 370.17 89.829" xmlns="http://www.w3.org/2000/svg">
<g transform="matrix(.78397 0 0 .78397 -.78397 12.216)" fill="#79de3c" featurekey="Ez5wPW-0">
<g xmlns="http://www.w3.org/2000/svg">
<path d="m70.582 1h-41.162c-15.871 0-28.42 12.549-28.42 28.42v41.162c0 15.869 12.549 28.418 28.42 28.418h41.162c15.871 0 28.418-12.549 28.418-28.418v-41.162c0-15.871-12.547-28.42-28.418-28.42zm-42.496 35.99c-4.508-1.576-8.869-3.633-12.812-6.457-0.164-0.117-2.109-2.084-1.855-2.17 3.045-1.021 5.764-1.475 8.977-1.316 3.391 0.168 7.52 0.1 9.582 3.324-0.076-5.26-1.441-10.256-2.23-15.414-0.078-0.521-0.504-6.943 0.08-6.846 1.211 0.205 2.486 0.34 3.258 1.383 0.928 1.252 1.58 2.852 2.432 4.174 2.742 4.256 5.295 8.887 6.334 13.695 0.75-3.074 1.922-5.861 4.035-8.072 2.723-2.848 5.938-5.879 9.77-7.123 0.893 3.99-0.973 8.34-2.328 12.018-0.658 1.781-1.439 3.344-2.268 5.051l-2.77 5.396c-1.242 1.418-7.199 4.477-8.822 5.303-2.426 1.234-6.998-1.415-11.383-2.946zm48.26 48.926c-1.139 1.352-4.523-1.498-4.523-1.498s-2.168-2.068-5.418-5.186c1.486-1.047 2.719-2.205 3.051-2.869l-1.121-0.557c-0.234 0.471-1.359 1.527-2.854 2.539-1.105-1.062-2.314-2.221-3.586-3.449 2.164-1.207 4.289-3.029 4.738-3.936l-1.119-0.557c-0.264 0.529-1.639 1.787-3.404 2.902-0.416 0.262-0.805 0.484-1.166 0.674-1.27-1.225-2.592-2.502-3.936-3.803 2.625-0.967 5.908-3.6 6.48-4.752l-1.121-0.557c-0.264 0.527-1.639 1.787-3.404 2.9-1.248 0.787-2.262 1.236-2.973 1.424-1.277-1.24-2.566-2.49-3.838-3.73 1.328-0.219 2.871-0.939 4.086-1.697 0.768-0.479 3.301-2.176 3.67-3.92l-1.223-0.26c-0.174 0.812-1.422 2.066-3.111 3.119-1.811 1.129-3.695 1.76-4.584 1.535l-0.018 0.068c-1.652-1.613-3.26-3.191-4.758-4.674 4.117-0.467 9.951-3.631 11.029-6.9l-1.189-0.391c-1.012 3.068-7.533 6.248-11.045 6.098-1.812-1.803-3.422-3.424-4.703-4.75 4.562-0.756 10.68-3.924 12.826-7.57l-1.076-0.635c-2.1 3.564-8.604 6.725-12.814 7.094-0.385-0.404-0.723-0.77-1.006-1.084-5.781-6.412 7.109-12.33 7.109-12.33 9.908-6.498 12.402 0.615 12.402 0.615l18.277 42.393c1e-3 2e-3 1.462 2.39 0.322 3.744z"/>
</g>
</g>
<g transform="matrix(2.8755 0 0 2.8755 94.872 14.128)" fill="#111" featurekey="ujU5uU-0">
<path d="m10.88 19.66c-0.56 0.22666-1.0966 0.37664-1.61 0.44998s-1.0833 0.11-1.71 0.11c-1.1333 0-2.1266-0.18-2.98-0.54s-1.5633-0.86334-2.13-1.51-0.99332-1.4167-1.28-2.31-0.43-1.8733-0.43-2.94 0.14666-2.0534 0.44-2.96 0.72334-1.6867 1.29-2.34 1.27-1.1633 2.11-1.53 1.8-0.55 2.88-0.55c0.62666 0 1.1933 0.06 1.7 0.18s1 0.28666 1.48 0.5l-0.82 2.66c-0.26666-0.12-0.56332-0.22666-0.88998-0.32s-0.71666-0.14-1.17-0.14c-2.3734 0-3.56 1.5-3.56 4.5 0 1.5067 0.30666 2.62 0.92 3.34s1.56 1.08 2.84 1.08c0.42666 0 0.80332-0.03 1.13-0.09s0.65-0.15 0.97-0.27zm4.76-11.46h-1.42l1.3-2.48h4.4l4.48 14.28h-3.44l-0.8-2.86-0.78 0.06h-2.78l-0.68-0.06-0.82 2.86h-3.22zm3.74 6.22-1.32-4.76-1.4 4.76h2.72zm6.68-8.6c0.64-0.08 1.2266-0.14334 1.76-0.19s1.1-0.07 1.7-0.07c0.73334 0 1.4633 0.07 2.19 0.21s1.3767 0.38334 1.95 0.73 1.0367 0.81332 1.39 1.4 0.53 1.3333 0.53 2.24c0 0.52-0.07 0.98666-0.21 1.4s-0.31334 0.77668-0.52 1.09-0.43666 0.58668-0.69 0.82002-0.5 0.43-0.74 0.59l-0.1 0.06 0.27 0.44 0.66 1.1 0.85 1.42 0.85 1.41 0.64 1.09 0.25 0.42h-3.66l-3.78-6.58v6.6h-3.34v-14.18zm3.34 7.46 0.7-0.32c0.17334-0.08 0.38-0.18 0.62-0.3s0.47334-0.27666 0.7-0.47 0.42-0.42334 0.58-0.69 0.24-0.59332 0.24-0.97998c0-0.41334-0.06-0.75668-0.18-1.03s-0.28666-0.49334-0.5-0.66-0.46334-0.28666-0.75-0.36-0.59666-0.11-0.93-0.11h-0.23l-0.25 0.02v4.9zm8.76-7.52c0.53334-0.09334 1.0934-0.15672 1.6801-0.19006s1.2733-0.05 2.06-0.05c0.74666 0 1.4433 0.06 2.09 0.18s1.21 0.32666 1.69 0.62 0.85666 0.68668 1.13 1.18 0.41 1.1133 0.41 1.86c0 0.61334-0.12334 1.18-0.37 1.7s-0.55666 0.93334-0.93 1.24c0.28 0.12 0.55334 0.27666 0.82 0.47s0.50332 0.43668 0.70998 0.73002 0.37666 0.63668 0.51 1.03 0.2 0.83668 0.2 1.33c0 0.88-0.16 1.6033-0.48 2.17s-0.75666 1.01-1.31 1.33-1.19 0.54334-1.91 0.67-1.48 0.19-2.28 0.19c-0.56 0-1.17-0.01666-1.83-0.05s-1.39-0.09668-2.19-0.19002v-14.22zm3.28 11.68c0.18666 0.02666 0.37666 0.04334 0.57 0.05s0.36334 0.01 0.51 0.01c0.24 0 0.5-0.02334 0.78-0.07s0.53334-0.13666 0.76-0.27 0.41666-0.31668 0.57-0.55002 0.23-0.54334 0.23-0.93c0-0.36-0.06-0.65334-0.18-0.88s-0.28666-0.40332-0.5-0.52998-0.47-0.21666-0.77-0.27-0.63666-0.08-1.01-0.08h-0.96v3.52zm0.64-6.08c0.6 0.02666 1.0934-0.08 1.48-0.32s0.58-0.7 0.58-1.38c0-0.33334-0.06-0.60334-0.18-0.81s-0.27666-0.37-0.47-0.49-0.40668-0.2-0.64002-0.24-0.46334-0.06-0.69-0.06h-0.36l-0.36 0.04v3.24zm13.76 8.86c-1.0933 0-2.0234-0.18666-2.79-0.56s-1.3933-0.88668-1.88-1.54-0.84332-1.43-1.07-2.33-0.34-1.8833-0.34-2.95 0.11334-2.05 0.34-2.95 0.58332-1.6733 1.07-2.32 1.1133-1.15 1.88-1.51 1.6967-0.54 2.79-0.54 2.0234 0.18 2.79 0.54 1.3933 0.86334 1.88 1.51 0.84 1.42 1.06 2.32 0.33 1.8833 0.33 2.95-0.11 2.05-0.33 2.95-0.57334 1.6767-1.06 2.33-1.1133 1.1667-1.88 1.54-1.6967 0.56-2.79 0.56zm0-2.8c0.92 0 1.5833-0.38 1.99-1.14s0.61-1.9067 0.61-3.44-0.19666-2.66-0.59-3.38-1.0567-1.08-1.99-1.08c-0.94666 0-1.6233 0.36-2.03 1.08s-0.61 1.8467-0.61 3.38 0.20334 2.68 0.61 3.44 1.0767 1.14 2.01 1.14zm8.16-11.72h3.18v11.42h2.3l0.5 0.06v-1.36l2.7-1.26v5.44h-8.68v-14.3zm10.68 0h8.42c-0.13334 0.50666-0.26668 0.98666-0.40002 1.44s-0.26668 0.92-0.40002 1.4h-4.4c0 0.05334 0.0066602 0.13 0.02 0.23s0.02 0.17666 0.02 0.23v2.1h4.04v2.86h-4.04v2.74l-0.04 0.46h5.28v2.84h-8.5v-14.3zm17.96 9.18-2.1-1.9531e-5 1.32-2.56h3.88v7.24c-0.77334 0.26666-1.5167 0.44332-2.23 0.52998s-1.3367 0.13-1.87 0.13c-1.1733 0-2.1934-0.18-3.06-0.54s-1.5867-0.86-2.16-1.5-1-1.4067-1.28-2.3-0.42-1.8733-0.42-2.94 0.14666-2.0534 0.44-2.96 0.72334-1.69 1.29-2.35 1.27-1.1733 2.11-1.54 1.8-0.55 2.88-0.55c0.62666 0 1.23 0.04666 1.81 0.14s1.23 0.28668 1.95 0.58002l-1.36 2.5c-0.25334-0.10666-0.56-0.19-0.92-0.25s-0.74666-0.09-1.16-0.09c-1.1867 0-2.0834 0.37334-2.69 1.12s-0.91 1.88-0.91 3.4 0.3 2.6334 0.9 3.34 1.5067 1.06 2.72 1.06c0.32 0 0.60666-0.02666 0.86-0.08v-2.38z"/>
</g>
</svg>
