<?xml version="1.0" encoding="UTF-8"?>
<svg class="css-1j8o68f" width="479.7" height="116.41" viewBox="0 0 370.17 89.829" xmlns="http://www.w3.org/2000/svg">
<g transform="matrix(.78397 0 0 .78397 -.78397 12.216)" fill="#79de3c" featurekey="Ez5wPW-0">
<g xmlns="http://www.w3.org/2000/svg">
<path d="m70.582 1h-41.162c-15.871 0-28.42 12.549-28.42 28.42v41.162c0 15.869 12.549 28.418 28.42 28.418h41.162c15.871 0 28.418-12.549 28.418-28.418v-41.162c0-15.871-12.547-28.42-28.418-28.42zm-42.496 35.99c-4.508-1.576-8.869-3.633-12.812-6.457-0.164-0.117-2.109-2.084-1.855-2.17 3.045-1.021 5.764-1.475 8.977-1.316 3.391 0.168 7.52 0.1 9.582 3.324-0.076-5.26-1.441-10.256-2.23-15.414-0.078-0.521-0.504-6.943 0.08-6.846 1.211 0.205 2.486 0.34 3.258 1.383 0.928 1.252 1.58 2.852 2.432 4.174 2.742 4.256 5.295 8.887 6.334 13.695 0.75-3.074 1.922-5.861 4.035-8.072 2.723-2.848 5.938-5.879 9.77-7.123 0.893 3.99-0.973 8.34-2.328 12.018-0.658 1.781-1.439 3.344-2.268 5.051l-2.77 5.396c-1.242 1.418-7.199 4.477-8.822 5.303-2.426 1.234-6.998-1.415-11.383-2.946zm48.26 48.926c-1.139 1.352-4.523-1.498-4.523-1.498s-2.168-2.068-5.418-5.186c1.486-1.047 2.719-2.205 3.051-2.869l-1.121-0.557c-0.234 0.471-1.359 1.527-2.854 2.539-1.105-1.062-2.314-2.221-3.586-3.449 2.164-1.207 4.289-3.029 4.738-3.936l-1.119-0.557c-0.264 0.529-1.639 1.787-3.404 2.902-0.416 0.262-0.805 0.484-1.166 0.674-1.27-1.225-2.592-2.502-3.936-3.803 2.625-0.967 5.908-3.6 6.48-4.752l-1.121-0.557c-0.264 0.527-1.639 1.787-3.404 2.9-1.248 0.787-2.262 1.236-2.973 1.424-1.277-1.24-2.566-2.49-3.838-3.73 1.328-0.219 2.871-0.939 4.086-1.697 0.768-0.479 3.301-2.176 3.67-3.92l-1.223-0.26c-0.174 0.812-1.422 2.066-3.111 3.119-1.811 1.129-3.695 1.76-4.584 1.535l-0.018 0.068c-1.652-1.613-3.26-3.191-4.758-4.674 4.117-0.467 9.951-3.631 11.029-6.9l-1.189-0.391c-1.012 3.068-7.533 6.248-11.045 6.098-1.812-1.803-3.422-3.424-4.703-4.75 4.562-0.756 10.68-3.924 12.826-7.57l-1.076-0.635c-2.1 3.564-8.604 6.725-12.814 7.094-0.385-0.404-0.723-0.77-1.006-1.084-5.781-6.412 7.109-12.33 7.109-12.33 9.908-6.498 12.402 0.615 12.402 0.615l18.277 42.393c1e-3 2e-3 1.462 2.39 0.322 3.744z"/>
</g>
</g>
<g transform="matrix(3.0797 0 0 3.0797 92.011 9.6123)" fill="#111" featurekey="ujU5uU-0">
<path d="m8.14 15.38v-0.62c0-0.1 0.08-0.18 0.18-0.18h2.28c0.1 0 0.18 0.08 0.18 0.18v1.26c0 2.94-1.58 4.18-4.56 4.18-2.78 0-4.6-1.1-4.6-4.18v-5.26c0-2.96 1.62-4.14 4.6-4.14 2.82 0 4.56 1.08 4.56 4.14v0.42c0 0.1-0.08 0.18-0.18 0.18h-2.3c-0.1 0-0.18-0.08-0.18-0.18v-0.32c0-1.1-0.82-1.56-1.8-1.56h-0.24c-0.66 0-1.1 0.18-1.4 0.58-0.28 0.38-0.38 0.88-0.38 1.54v3.96c0 1.74 0.98 2.12 1.78 2.12h0.24c1.26 0 1.78-0.84 1.82-2.12zm-1.96-7.52c-2.14 0-3.38 0.76-3.38 3.2v4.82c0 2.22 1.14 3.04 3.38 3.04 2.1 0 3.36-0.76 3.36-3.06 0-0.16-0.24-0.16-0.24 0 0 2.02-1.1 2.84-3.12 2.84-1.96 0-3.16-0.68-3.16-2.82v-4.82c0-2.08 0.98-2.98 3.16-2.98 2.84 0 2.94 1.8 2.94 2 0 0.18 0.28 0.2 0.28 0 0-1.66-1.68-2.22-3.22-2.22zm10.48-0.94c0.02-0.06 0.06-0.12 0.14-0.12h2.48c0.08 0 0.12 0.06 0.14 0.12l3.46 12.86c0.02 0.12-0.06 0.22-0.18 0.22h-2.28c-0.06 0-0.12-0.04-0.14-0.12l-0.78-2.8h-2.92l-0.76 2.8c-0.02 0.08-0.06 0.12-0.14 0.12h-2.3c-0.12 0-0.2-0.1-0.18-0.22zm0.56 7.68h1.66l-0.86-3.02zm3.08 1.18 0.92 3c0.04 0.12 0.26 0.1 0.2-0.06l-3.2-10.64c-0.06-0.26-0.4-0.28-0.46 0l-3.1 10.64c-0.06 0.14 0.16 0.2 0.22 0.08l0.88-3.02h4.54zm-4.48-0.26 2.18-7.36 2.22 7.36h-4.4zm17.36-0.74c-0.28 0.58-0.68 1.02-1.24 1.28l1.68 3.7c0.06 0.12-0.02 0.24-0.14 0.24h-2.46c-0.08 0-0.12-0.04-0.14-0.1l-1.56-3.4h-1.02v3.32c0 0.1-0.08 0.18-0.18 0.18h-2.3c-0.08 0-0.14-0.08-0.14-0.18v-12.84c0-0.1 0.06-0.18 0.14-0.18h4.16c2.22 0 3.56 1.26 3.56 3.6v2.52c0 0.7-0.12 1.36-0.36 1.86zm-2.26-2.48v-1.3c0-1.4-0.52-1.54-2.04-1.54h-0.58v4.42h0.58c1.26 0 2-0.02 2.04-1.58zm-3.78 6.48v-3.42h2.88l1.68 3.46c0.04 0.1 0.28 0.06 0.22-0.12l-1.68-3.4c1.56-0.22 2.1-1.04 2.1-2.52v-2.5c0-2.2-2-2.38-2.62-2.38h-2.7c-0.04 0-0.12 0.06-0.12 0.12v10.76c0 0.14 0.24 0.14 0.24 0zm4.96-8.5v2.5c0 2.04-1.3 2.32-2.56 2.32h-2.4v-6.94h2.58c2.16 0 2.38 1.46 2.38 2.12zm12.52-0.06c0 0.78-0.12 1.46-0.4 1.96 0.76 0.72 1.08 1.88 1.08 3.5 0 1.72-0.36 2.94-1.18 3.58-0.78 0.62-1.88 0.74-2.98 0.74h-3.9c-0.1 0-0.16-0.08-0.16-0.18v-12.84c0-0.1 0.06-0.18 0.16-0.18h3.2c1.08 0 2.2 0.08 2.96 0.58 0.94 0.6 1.22 1.68 1.22 2.84zm-4.9-0.8v1.8h1.22c0.64 0 0.98-0.2 0.98-0.9s-0.52-0.9-1.4-0.9h-0.8zm0.76 7.96c1.1 0 2.14-0.48 2.14-1.76 0-0.96-0.68-1.72-1.7-1.72h-1.2v3.48h0.76zm-2.24-9.32v10.66c0 0.1 0.08 0.14 0.16 0.14h2.68c1.94 0 3.1-0.98 3.1-3.08 0-1.5-0.34-3.06-1.9-3.5 0.92-0.3 1.16-1.22 1.16-2.2 0-1.6-0.9-2.18-2.52-2.18h-2.52c-0.12 0-0.16 0.06-0.16 0.16zm2.54 10.56h-2.28v-6.16h2.82c2.06 0 2.58 1.34 2.58 3.32 0 2.02-1.1 2.92-3.12 2.84zm2.42-8.54c0 1.62-0.68 2.12-2.32 2.12h-2.38v-4.04h2.42c1.18 0 2.28 0.22 2.28 1.92zm9.72-3.46c1.72 0 2.92 0.38 3.68 1.2 0.6 0.66 0.88 1.6 0.88 2.94v5.26c0 1.38-0.28 2.34-0.88 2.98-0.78 0.8-1.96 1.2-3.68 1.2-1.78 0-2.94-0.4-3.7-1.2-0.58-0.64-0.9-1.6-0.9-2.98v-5.26c0-1.34 0.32-2.28 0.9-2.96 0.78-0.8 1.96-1.18 3.7-1.18zm1.9 8.8v-4c0-1.76-0.94-2.12-1.8-2.12h-0.24c-1.28 0-1.78 0.82-1.78 2.12v4c0 1.76 0.94 2.14 1.78 2.14h0.24c1.28 0 1.78-0.86 1.8-2.14zm-5.24-4.52v4.96c0 0.94 0.24 1.72 0.8 2.3 0.52 0.52 1.32 0.8 2.3 0.8h0.52c1.88 0 3.1-1.2 3.1-3.1v-4.96c0-2.04-1.08-3.14-3.1-3.14h-0.52c-2.04 0-3.1 1.1-3.1 3.14zm3.62 7.8h-0.52c-0.94 0-1.64-0.24-2.14-0.74s-0.76-1.2-0.76-2.1v-4.96c0-1.9 1.02-2.9 2.9-2.9h0.52c1.9 0 2.84 0.98 2.84 2.9v4.96c0 0.84-0.26 1.6-0.8 2.12-0.52 0.44-1.22 0.72-2.04 0.72zm10.22-11.9c0.1 0 0.18 0.08 0.18 0.18v10.5h4.32c0.1 0 0.18 0.08 0.18 0.18v2.16c0 0.1-0.08 0.18-0.18 0.18h-6.78c-0.1 0-0.16-0.08-0.16-0.18v-12.84c0-0.1 0.06-0.18 0.16-0.18h2.28zm-1.24 1.22v10.76c0 0.04 0.04 0.1 0.12 0.1h4.62c0.16 0 0.16-0.26 0-0.26h-4.52v-10.6c0-0.14-0.22-0.16-0.22 0zm8.88 11.98c-0.1 0-0.16-0.08-0.16-0.18v-12.84c0-0.1 0.06-0.18 0.16-0.18h6.8c0.1 0 0.18 0.08 0.18 0.18v2.14c0 0.1-0.08 0.18-0.18 0.18h-4.32v2.72h3.36c0.1 0 0.16 0.08 0.16 0.18v2.18c0 0.1-0.06 0.18-0.16 0.18h-3.36v2.94h4.32c0.1 0 0.18 0.08 0.18 0.18v2.14c0 0.1-0.08 0.18-0.18 0.18h-6.8zm1-11.94v10.64c0 0.12 0.08 0.16 0.16 0.16h4.6c0.18 0 0.14-0.24 0-0.24h-4.5v-5.22h3.68c0.12 0 0.12-0.28 0-0.28h-3.68v-4.96h4.5c0.14 0 0.18-0.26 0-0.26h-4.6c-0.08 0-0.16 0.06-0.16 0.16zm13.5 7.14c-0.1 0-0.18-0.08-0.18-0.18v-2.14c0-0.1 0.08-0.18 0.18-0.18h4.58c0.1 0 0.18 0.08 0.18 0.18v3.14c0 2.94-1.58 4.18-4.56 4.18-2.78 0-4.6-1.1-4.6-4.18v-5.26c0-2.9 1.62-4.14 4.6-4.14 2.8 0 4.56 1.08 4.56 4.14v0.42c0 0.1-0.08 0.18-0.18 0.18h-2.3c-0.1 0-0.18-0.08-0.18-0.18v-0.26c0-1.22-0.78-1.62-1.8-1.62h-0.24c-0.66 0-1.1 0.18-1.4 0.58-0.28 0.38-0.38 0.88-0.38 1.54v3.96c0 1.74 0.94 2.12 1.78 2.12h0.24c1.22 0 1.8-0.84 1.8-2.12v-0.18h-2.1zm-3.18 0.68c0 2.22 1.08 3.04 3.36 3.04 2.4 0 3.38-1 3.38-3.46v-1.5c0-0.06-0.04-0.14-0.08-0.14h-2.78c-0.18 0-0.14 0.26 0 0.26h2.62v1.38c0 2.14-0.82 3.24-3.14 3.24-1.92 0-3.12-0.68-3.12-2.82v-4.82c0-2.06 0.94-2.98 3.12-2.98 1.62 0 3.1 0.9 2.98 2.28 0 0.16 0.22 0.2 0.26 0.02 0-1.76-1.6-2.52-3.24-2.52-2 0-3.36 0.72-3.36 3.2v4.82z"/>
</g>
</svg>
