<?xml version="1.0" encoding="UTF-8"?>
<svg class="" style="" viewBox="0 0 98 100" viewbox="0 0 98 98" xmlns="http://www.w3.org/2000/svg">
<g fill="#79de3c" featurekey="Ez5wPW-0">
<g xmlns="http://www.w3.org/2000/svg">
<path d="m70.582 1h-41.162c-15.871 0-28.42 12.549-28.42 28.42v41.162c0 15.869 12.549 28.418 28.42 28.418h41.162c15.871 0 28.418-12.549 28.418-28.418v-41.162c0-15.871-12.547-28.42-28.418-28.42zm-42.496 35.99c-4.508-1.576-8.869-3.633-12.812-6.457-0.164-0.117-2.109-2.084-1.855-2.17 3.045-1.021 5.764-1.475 8.977-1.316 3.391 0.168 7.52 0.1 9.582 3.324-0.076-5.26-1.441-10.256-2.23-15.414-0.078-0.521-0.504-6.943 0.08-6.846 1.211 0.205 2.486 0.34 3.258 1.383 0.928 1.252 1.58 2.852 2.432 4.174 2.742 4.256 5.295 8.887 6.334 13.695 0.75-3.074 1.922-5.861 4.035-8.072 2.723-2.848 5.938-5.879 9.77-7.123 0.893 3.99-0.973 8.34-2.328 12.018-0.658 1.781-1.439 3.344-2.268 5.051l-2.77 5.396c-1.242 1.418-7.199 4.477-8.822 5.303-2.426 1.234-6.998-1.415-11.383-2.946zm48.26 48.926c-1.139 1.352-4.523-1.498-4.523-1.498s-2.168-2.068-5.418-5.186c1.486-1.047 2.719-2.205 3.051-2.869l-1.121-0.557c-0.234 0.471-1.359 1.527-2.854 2.539-1.105-1.062-2.314-2.221-3.586-3.449 2.164-1.207 4.289-3.029 4.738-3.936l-1.119-0.557c-0.264 0.529-1.639 1.787-3.404 2.902-0.416 0.262-0.805 0.484-1.166 0.674-1.27-1.225-2.592-2.502-3.936-3.803 2.625-0.967 5.908-3.6 6.48-4.752l-1.121-0.557c-0.264 0.527-1.639 1.787-3.404 2.9-1.248 0.787-2.262 1.236-2.973 1.424-1.277-1.24-2.566-2.49-3.838-3.73 1.328-0.219 2.871-0.939 4.086-1.697 0.768-0.479 3.301-2.176 3.67-3.92l-1.223-0.26c-0.174 0.812-1.422 2.066-3.111 3.119-1.811 1.129-3.695 1.76-4.584 1.535l-0.018 0.068c-1.652-1.613-3.26-3.191-4.758-4.674 4.117-0.467 9.951-3.631 11.029-6.9l-1.189-0.391c-1.012 3.068-7.533 6.248-11.045 6.098-1.812-1.803-3.422-3.424-4.703-4.75 4.562-0.756 10.68-3.924 12.826-7.57l-1.076-0.635c-2.1 3.564-8.604 6.725-12.814 7.094-0.385-0.404-0.723-0.77-1.006-1.084-5.781-6.412 7.109-12.33 7.109-12.33 9.908-6.498 12.402 0.615 12.402 0.615l18.277 42.393c1e-3 2e-3 1.462 2.39 0.322 3.744z"/>
</g>
</g>
</svg>
